<svg xmlns="http://www.w3.org/2000/svg" width="1200" height="500" viewBox="0 0 760 315" role="img"><rect width="760" height="315" fill="#fbfcf9"/><text x="18" y="30" fill="#597177" font-family="Arial, sans-serif" font-size="12">Rb2Cu2SnS4 · 300 K saved q-mesh diagnostic · rejected, not accepted kappa_L</text><text x="10" y="150" fill="#597177" font-family="Arial, sans-serif" font-size="11" transform="rotate(-90 10 150)">kappa (W m-1 K-1)</text><text x="205" y="302" fill="#597177" font-family="Arial, sans-serif" font-size="10">mesh density length (A); this is not a pair cutoff</text><line x1="65" y1="263.00" x2="730" y2="263.00" stroke="#dde5df"/><text x="25" y="267.00" fill="#597177" font-family="Arial, sans-serif" font-size="11">0.00</text><line x1="65" y1="209.25" x2="730" y2="209.25" stroke="#dde5df"/><text x="25" y="213.25" fill="#597177" font-family="Arial, sans-serif" font-size="11">0.04</text><line x1="65" y1="155.50" x2="730" y2="155.50" stroke="#dde5df"/><text x="25" y="159.50" fill="#597177" font-family="Arial, sans-serif" font-size="11">0.08</text><line x1="65" y1="101.75" x2="730" y2="101.75" stroke="#dde5df"/><text x="25" y="105.75" fill="#597177" font-family="Arial, sans-serif" font-size="11">0.12</text><line x1="65" y1="48.00" x2="730" y2="48.00" stroke="#dde5df"/><text x="25" y="52.00" fill="#597177" font-family="Arial, sans-serif" font-size="11">0.16</text><text x="61.00" y="285" fill="#597177" font-family="Arial, sans-serif" font-size="11">45 A</text><text x="211.00" y="285" fill="#597177" font-family="Arial, sans-serif" font-size="11">60 A</text><text x="361.00" y="285" fill="#597177" font-family="Arial, sans-serif" font-size="11">75 A</text><text x="511.00" y="285" fill="#597177" font-family="Arial, sans-serif" font-size="11">90 A</text><text x="661.00" y="285" fill="#597177" font-family="Arial, sans-serif" font-size="11">105 A</text><polyline points="75.00,85.56 225.00,75.31 375.00,71.75 525.00,70.94 675.00,65.90" fill="none" stroke="#257278" stroke-width="2.5"/><text x="75" y="307" fill="#257278" font-family="Arial, sans-serif" font-size="11">kappa xx</text><circle cx="75.00" cy="85.56" r="3.5" fill="#257278"/><circle cx="225.00" cy="75.31" r="3.5" fill="#257278"/><circle cx="375.00" cy="71.75" r="3.5" fill="#257278"/><circle cx="525.00" cy="70.94" r="3.5" fill="#257278"/><circle cx="675.00" cy="65.90" r="3.5" fill="#257278"/><polyline points="75.00,66.86 225.00,77.00 375.00,78.53 525.00,76.34 675.00,75.85" fill="none" stroke="#c66a3d" stroke-width="2.5"/><text x="200" y="307" fill="#c66a3d" font-family="Arial, sans-serif" font-size="11">kappa yy</text><circle cx="75.00" cy="66.86" r="3.5" fill="#c66a3d"/><circle cx="225.00" cy="77.00" r="3.5" fill="#c66a3d"/><circle cx="375.00" cy="78.53" r="3.5" fill="#c66a3d"/><circle cx="525.00" cy="76.34" r="3.5" fill="#c66a3d"/><circle cx="675.00" cy="75.85" r="3.5" fill="#c66a3d"/><polyline points="75.00,153.93 225.00,140.03 375.00,110.42 525.00,98.43 675.00,79.75" fill="none" stroke="#72578c" stroke-width="2.5"/><text x="325" y="307" fill="#72578c" font-family="Arial, sans-serif" font-size="11">kappa zz</text><circle cx="75.00" cy="153.93" r="3.5" fill="#72578c"/><circle cx="225.00" cy="140.03" r="3.5" fill="#72578c"/><circle cx="375.00" cy="110.42" r="3.5" fill="#72578c"/><circle cx="525.00" cy="98.43" r="3.5" fill="#72578c"/><circle cx="675.00" cy="79.75" r="3.5" fill="#72578c"/><polyline points="75.00,102.12 225.00,97.45 375.00,86.90 525.00,81.90 675.00,73.83" fill="none" stroke="#3c8d63" stroke-width="2.5"/><text x="450" y="307" fill="#3c8d63" font-family="Arial, sans-serif" font-size="11">trace/3</text><circle cx="75.00" cy="102.12" r="3.5" fill="#3c8d63"/><circle cx="225.00" cy="97.45" r="3.5" fill="#3c8d63"/><circle cx="375.00" cy="86.90" r="3.5" fill="#3c8d63"/><circle cx="525.00" cy="81.90" r="3.5" fill="#3c8d63"/><circle cx="675.00" cy="73.83" r="3.5" fill="#3c8d63"/></svg>
